<svg id="Layer_1" data-name="Layer 1" xmlns="http://www.w3.org/2000/svg" viewBox="0 0 1920 360"><defs><style>.cls-1{fill:#0280c1;}.cls-2{fill:#fff;}</style></defs><title>Artboard 5</title><path class="cls-1" d="M949.27,262.74q-32.13,7.68-52,4.18-36-6.27-45.73-25.12Q848,235.16,848,230.1a39.44,39.44,0,0,1,.69-8.2q2.12-10.83,13.44-23.05t31.6-23.39l18.16-10.12q6.27-58,73-99.15,26.18-16.41,44-16.41a31.91,31.91,0,0,1,10.83,1.75q11.5,4.17,11.51,15,0,18.85-25.47,39.1a243.79,243.79,0,0,1-30.38,21.3L934.6,163.24v10.31q0,7.84,3.14,20.76a175.16,175.16,0,0,1,58-20.24,152,152,0,0,1,26.87-2.8q28.64,0,32.47,18.15a32.87,32.87,0,0,1,.36,4.55q0,11.88-12.93,24.79-22.68,22.68-76.1,39.1,21.28,29,46.79,39.44,17.08,7.35,26.53,7.33t13.09-4a12.32,12.32,0,0,0,3.66-8.38q0-4.38-4.89-10.3-10.47-13.62-30.72-13.61a59.09,59.09,0,0,0-6.45.52c-2.92.35-4.36.17-4.36-.52q-1.07-2.81,4.88-3.84a118.37,118.37,0,0,1,17.45-1.4q22.35,0,31.77,12.22,4.89,5.58,4.89,11.35t-4.18,11.69q-8,11.85-25.85,11.87-13.95,0-29.31-6.63Q973.7,288.23,949.27,262.74Zm-69.13-5.23A64.59,64.59,0,0,0,904.58,262a196.92,196.92,0,0,0,40.14-3.84q-17.79-20.58-25.48-40.85c-7.91,4.67-12.69,7.85-14.31,9.6s-2.57,2.57-2.8,2.45-.23-.88,0-2.27q1.05-7.66,13.27-17.8l.69-.36a109.8,109.8,0,0,1-4.88-31.41l-10.12,6.28q-19.2,13.26-29.15,27.58t-10,26.89Q862,250.87,880.14,257.51ZM1004.6,107.73q15.89-14,15.89-25.31t-11.88-11.34Q995,71.08,976.15,84q-36,24.47-40.16,68.44,6.3-3.84,21.3-12.22Q988.7,121.69,1004.6,107.73ZM1047,196.05q0-9.75-20.25-9.77-34.23,0-85.89,20.95a161.87,161.87,0,0,0,22,46.08q42.6-13.25,69.47-36.65Q1047,204.08,1047,196.05Z"/><path class="cls-2" d="M1206.91,258.06q-18-6-28.24-15.52l9-19.07q9.77,8.79,25,14.3a92,92,0,0,0,31.41,5.5q21.28,0,31.79-7.22t10.51-19.19q0-8.79-5.75-14.3a38.39,38.39,0,0,0-14.17-8.42q-8.44-3-23.85-6.61a247.12,247.12,0,0,1-31.16-9.29,51.41,51.41,0,0,1-20.3-14.31q-8.41-9.65-8.42-26a44.13,44.13,0,0,1,7.2-24.69q7.23-11,21.88-17.6t36.43-6.6a115.23,115.23,0,0,1,29.83,3.91,79.18,79.18,0,0,1,25.18,11.25l-8.07,19.55a88.82,88.82,0,0,0-23-10.39,85.86,85.86,0,0,0-24-3.54q-20.77,0-31.17,7.57t-10.39,19.57a18.73,18.73,0,0,0,5.87,14.3,40.72,40.72,0,0,0,14.54,8.56,229,229,0,0,0,23.6,6.47,238.73,238.73,0,0,1,31,9.3A52.07,52.07,0,0,1,1302,189.73q8.45,9.54,8.44,25.68A43.66,43.66,0,0,1,1303.1,240q-7.32,11.13-22.24,17.6t-36.68,6.48A117.11,117.11,0,0,1,1206.91,258.06Z"/><path class="cls-2" d="M1401.87,186.06l-31.3,31.79V262.1h-24.45V91h24.45v95.59L1463.47,91h27.87l-73.1,77L1496,262.1h-28.6Z"/><path class="cls-2" d="M1521.9,91h24.45V262.1H1521.9Z"/><path class="cls-2" d="M1597.67,91h24.46V240.82h92.65V262.1H1597.67Z"/><path class="cls-2" d="M1742.9,91h24.45V240.82H1860V262.1H1742.9Z"/><path class="cls-2" d="M319.63,91,262.42,262.09H236.74L190.05,125.43,143.37,262.09H117.21L60,91H85.17l46.21,139.11L179.55,91H202L249.21,230.8,296.41,91Z"/><path class="cls-2" d="M371.4,91h24.45V262.09H371.4Z"/><path class="cls-2" d="M458.16,91h24.46V240.82h92.65v21.27H458.16Z"/><path class="cls-2" d="M614.35,91h24.46V240.82h92.65v21.27H614.35Z"/></svg>